<svg xmlns="http://www.w3.org/2000/svg" viewBox="0 0 1200 630" role="img" aria-label="Happy Birthday Laurie A Roening preview image">
  <defs>
    <linearGradient id="bg" x1="0" x2="1" y1="0" y2="1">
      <stop offset="0" stop-color="#fff7ec"/>
      <stop offset=".55" stop-color="#ffe0d9"/>
      <stop offset="1" stop-color="#fff9f1"/>
    </linearGradient>
    <filter id="shadow" x="-20%" y="-20%" width="140%" height="150%">
      <feDropShadow dx="0" dy="22" stdDeviation="24" flood-color="#6f1739" flood-opacity=".22"/>
    </filter>
  </defs>
  <rect width="1200" height="630" fill="url(#bg)"/>
  <circle cx="908" cy="305" r="190" fill="#fff9f1" opacity=".9"/>
  <circle cx="908" cy="305" r="168" fill="none" stroke="#ffe9bd" stroke-width="18" opacity=".45"/>
  <g filter="url(#shadow)">
    <ellipse cx="908" cy="430" rx="160" ry="32" fill="#d9d3ca"/>
    <rect x="760" y="278" width="296" height="142" rx="40" fill="#4a2a19"/>
    <ellipse cx="908" cy="278" rx="148" ry="48" fill="#fff8ed" stroke="#78452a" stroke-width="4"/>
    <path d="M764 292c25 0 20 54 50 54s28-42 60-42 28 58 68 58 41-61 72-61 20 61 46 61v-79H764Z" fill="#fff2dc"/>
    <rect x="899" y="210" width="18" height="70" rx="9" fill="#c8305d"/>
    <path d="M899 218l18 18M899 242l18 18" stroke="#fff9f1" stroke-width="7"/>
    <path d="M908 194c20 22 14 47 0 55-14-8-20-33 0-55Z" fill="#f7b733"/>
  </g>
  <text x="90" y="145" fill="#137b7a" font-family="Arial,sans-serif" font-size="24" font-weight="800" letter-spacing="7">A DAY MADE FOR LAURIE</text>
  <text x="90" y="265" fill="#251620" font-family="Georgia,serif" font-size="92" font-weight="700">Happy Birthday,</text>
  <text x="90" y="370" fill="#251620" font-family="Georgia,serif" font-size="92" font-weight="700">Laurie A Roening</text>
  <text x="94" y="448" fill="#765e69" font-family="Arial,sans-serif" font-size="34">My beautiful queen, my heartbeat, my forever person.</text>
  <rect x="94" y="498" width="260" height="62" rx="31" fill="#c8305d"/>
  <text x="224" y="539" text-anchor="middle" fill="#fff9f1" font-family="Arial,sans-serif" font-size="24" font-weight="800">Open the card</text>
</svg>
